<?xml version="1.0" encoding="UTF-8"?>
<svg width="24px" height="24px" viewBox="0 0 24 24" version="1.1" xmlns="http://www.w3.org/2000/svg" xmlns:xlink="http://www.w3.org/1999/xlink">
    <!-- Generator: Sketch 39.1 (31720) - http://www.bohemiancoding.com/sketch -->
    <title>icon-search</title>
    <desc>Created with Sketch.</desc>
    <defs></defs>
    <g id="Page-1" stroke="none" stroke-width="1" fill="none" fill-rule="evenodd">
        <g id="icon-search" fill="#FFFFFF">
            <g id="Page-1">
                <g id="icon-111-search">
                    <path d="M14.6477633,16.8295815 C13.1315449,17.9099785 11.2763479,18.5454545 9.27272727,18.5454545 C4.15154115,18.5454545 0,14.3939134 0,9.27272727 C0,4.15154115 4.15154115,0 9.27272727,0 C14.3939134,0 18.5454545,4.15154115 18.5454545,9.27272727 C18.5454545,11.2763479 17.9099785,13.1315449 16.8295815,14.6477633 L22.9220919,20.7402737 C23.5223112,21.340493 23.5173069,22.3008749 22.9218747,22.8963071 L22.8963071,22.9218747 C22.302398,23.5157839 21.3355859,23.5174041 20.7402737,22.9220919 L14.6477633,16.8295815 L14.6477633,16.8295815 L14.6477633,16.8295815 Z M9.27272727,16.3636364 C13.1889285,16.3636364 16.3636364,13.1889285 16.3636364,9.27272727 C16.3636364,5.35652607 13.1889285,2.18181818 9.27272727,2.18181818 C5.35652607,2.18181818 2.18181818,5.35652607 2.18181818,9.27272727 C2.18181818,13.1889285 5.35652607,16.3636364 9.27272727,16.3636364 L9.27272727,16.3636364 L9.27272727,16.3636364 Z" id="search"></path>
                </g>
            </g>
        </g>
    </g>
</svg>